<svg xmlns="http://www.w3.org/2000/svg" width="250" height="250" fill="none" viewBox="0 0 250 250">
<!-- SVG created with Arrow, by QuiverAI (https://quiver.ai) -->
  <path d="m18.58 97.58c18.29-28.14 52.41-48.96 85.94-52.47-20.29 9.72-33.51 28.7-35.46 48.68-1.38 14.62 2.65 27.88 10.11 38.12l-12.29-6.8-2.01 5.08c14.19 7.88 28.99 12.36 51.94 12.45 32.47 0.13 57.9-22.63 57.9-45.52 0-14.03-5.94-25.97-14.89-34.93-6.69-2.63-12.7-4.01-18.08-4.69 13.14 6.49 31.4 19.12 31.4 40.41 0 21.3-17.95 50.96-56.46 50.96-43.7 0-75.54-23.2-98.1-51.29z" fill="url(#paint0_linear_203_1167)"/>
  <path d="m144.9 148.6c27.89-2.59 59.93-19.64 86.2-50.97-19.04-30.44-56.7-52.95-99.07-52.95-38.1 0-58.39 25.42-58.39 52.41 0 13.89 6.33 27.29 15.3 36.25 6.69 2.59 10.87 3.37 18.51 4.05-13.57-6.14-26.25-20.18-26.25-39.76 0-20.77 16.73-46.2 50.69-46.2 19.01 0 34.31 5.76 51.22 14.26l-2.17 4.56-10.31-5.37c7.52 9.98 10.48 19.92 9.51 35.06-1.38 17.68-17.01 41.85-35.24 48.66z" fill="url(#paint1_linear_203_1167)"/>
  <path d="m206.4 81.18 14.56 16.55c-4.04 6.25-7.69 11.13-14.83 16.24v-9.26c-4.72-0.88-5.99-4.09-5.99-6.72s1.9-5.76 5.99-6.54v-10.27z" fill="#FEFFFE"/>
  <path d="m187.8 68.91 5.89 3.88-3.67 5.12-4.85-3.69 2.63-5.31z" fill="#FEFFFE"/>
  <path d="m196.9 74.55 5.26 3.63-3.4 5.12-4.4-3.58 2.54-5.17z" fill="#FEFFFE"/>
  <path d="m180.5 123.5 3.88 4.25-5.4 3.88-2.55-5.12 4.07-3.01z" fill="#FEFFFE"/>
  <path d="m189.6 118.3 3.88 4.57-5.4 3.57-2.97-4.86 4.49-3.28z" fill="#FEFFFE"/>
  <path d="m198.9 112.4 4.4 4.4-4.94 4.16-4.06-4.86 4.6-3.7z" fill="#FEFFFE"/>
  <path d="m28.11 97.71c5.1-7.44 9.17-11.6 15.37-15.48v9.26c4.72 0.88 5.99 4.09 5.99 6.22 0 2.12-1.9 5.5-5.99 6.28v9.79c-5.76-5.05-10.27-10.17-15.37-16.07z" fill="#FEFFFE"/>
  <path d="m50.18 75.31 4.71 3.35-4.08 4.56-3.29-4.56 2.66-3.35z" fill="#FEFFFE"/>
  <path d="m59.66 69.16 5.1 3.35-3.68 4.42-4.33-4.01 2.91-3.76z" fill="#FEFFFE"/>
  <path d="m69.14 64.04 4.72-0.54 1.52 4.26-3.47 3.35-5.69-4.42 2.92-2.65z" fill="#FEFFFE"/>
  <path d="m49.91 113.8 4.98 3.35-2.54 3.78-4.56-3.35 2.12-3.78z" fill="#FEFFFE"/>
  <path d="m59.11 118.8 5.08 3.35-2.7 4.42-5.08-2.89 2.7-4.88z" fill="#FEFFFE"/>
  <path d="m124.5 58.84c-21.5 0-37 19.27-37 39.35 0 18.72 15.5 36.88 37 36.88s37.8-17.89 37.8-37.97c0-18.72-14.87-38.26-37.8-38.26z" fill="url(#paint2_linear_203_1167)"/>
  <path d="m124.4 62.72c-5.54 0-6.92 4.29-6.92 7.64h14.08c0-3.35-2.17-7.64-7.16-7.64z" fill="#FEFFFE"/>
  <path d="m106.4 71.4c-5.31 0-6.82 5.31-6.82 6.92l3.02 6.29 8.46-7.57c0-2.06-1.46-5.64-4.66-5.64z" fill="url(#paint3_linear_203_1167)"/>
  <path d="m143.7 71.13c-4.5 0-8.04 3.42-8.04 6.98l3.54 6.03 8.69-0.27c2.04-1.64 2.18-3.76 2.18-4.94 0-2.7-3.16-7.8-6.37-7.8z" fill="url(#paint4_linear_203_1167)"/>
  <path d="m99.26 90.34c-4.91 0-7.61 4.57-7.61 6.9l2.96 6.1 6.3 0.78 4.36-4.49c0.48-2.79-0.13-9.29-6.01-9.29z" fill="url(#paint5_linear_203_1167)"/>
  <path d="m150.2 90.34c-4.49 0-6.7 4.43-6.7 7.1l2.14 5.9 6.56 1.12c3.54-1.12 5.91-4.35 5.91-6.47 0-2.74-3.12-7.65-7.91-7.65z" fill="url(#paint6_linear_203_1167)"/>
  <path d="m106.2 109.8c-4.91 0-6.22 5.05-6.22 6.67l3.54 5.42 4.5 1.32c3.25-1.32 5.55-4.16 5.55-7.08 0-2.63-2.91-6.33-7.37-6.33z" fill="url(#paint7_linear_203_1167)"/>
  <path d="m143 109.8c-5.23 0-7.36 4.15-7.36 6.65l3.88 5.91 5.1 0.85c3.54-1.63 5.3-4.36 5.3-7.1 0-2.12-2.44-6.31-6.92-6.31z" fill="url(#paint8_linear_203_1167)"/>
  <path d="m124.5 117.1c-5.2 0-6.65 3.81-6.65 6.04l1.38 3.64 3.68 1.91h3.88c4.43-0.88 4.91-5 4.91-6.91-0.68-2.73-2.62-4.68-7.2-4.68z" fill="#FEFFFE"/>
  <path d="m117.7 88.64v17.68c0 1.45 1.38 1.72 2.59 1.01l14.46-8.52c0.91-0.55 0.91-1.77-0.06-2.38l-14.19-9.07c-1.22-0.81-2.8-0.34-2.8 1.28z" fill="#FEFFFE"/>
  <path d="m6.75 167.1h6.99v12.47h5.34l7.74-12.47h8.62l-11.31 15.54 11.65 15.87h-8.62l-8.35-12.97h-5.07v12.97h-6.99v-31.41z" fill="url(#paint9_linear_203_1167)"/>
  <path d="m55.09 166.7c10.65 0 16.34 8.25 16.34 16.09 0 8.18-6.99 15.73-16.34 15.73-10.04 0-17.85-6.87-17.85-16 0-7.84 6.85-15.82 17.85-15.82zm-0.07 5.84c-6.06 0-8.98 4.56-9.39 7.25h18.2c-0.41-2.42-3.01-7.25-8.81-7.25zm0.21 20.14c5.99 0 9.08-5.18 9.49-7.6h-19.09c0.61 3.17 3.6 7.6 9.6 7.6z" fill="url(#paint10_linear_203_1167)"/>
  <path d="m77.12 167.1h15.8c8.89 0 12.36 5.56 12.36 10.84 0 6.45-4.66 11.25-12.97 11.25h-6.99v8.91h-7.93l-0.27-31zm8.14 16.25h6.99c4.17 0 6.41-2.9 6.41-5.72s-2.04-5.24-5.85-5.24h-7.55v10.96z" fill="#030405"/>
  <path d="m110.1 167.1h6.99v25.09h9.81v-25.09h7.46v25.09h10.27v-25.09h6.72v25.09h4.2v12.6h-6.85v-6.69h-38.6v-31z" fill="#030405"/>
  <path d="m160.4 167.1h6.99l-0.13 20.05 15.23-20.05h6.72v31.41h-6.72v-20.88l-14.49 20.47h-7.6v-31z" fill="#030405"/>
  <path d="m197.2 167.1h6.99v25.09h9.81v-25.09h7.46v25.09h10.27v-25.09h7.22v25.09h4.33v12.2h-6.85v-6.29h-39.23v-31z" fill="#030405"/>
  <defs>
    <linearGradient id="paint0_linear_203_1167" x1="18.58" x2="174.7" y1="96.99" y2="96.99" gradientUnits="userSpaceOnUse">
      <stop stop-color="#E42026" offset="0"/>
      <stop stop-color="#A71E22" offset="1"/>
    </linearGradient>
    <linearGradient id="paint1_linear_203_1167" x1="73.62" x2="231.1" y1="96.67" y2="96.67" gradientUnits="userSpaceOnUse">
      <stop stop-color="#E42026" offset="0"/>
      <stop stop-color="#C42127" offset=".13"/>
      <stop stop-color="#8A2229" offset=".41"/>
      <stop stop-color="#5D232B" offset=".66"/>
      <stop stop-color="#40242C" offset=".87"/>
      <stop stop-color="#35242D" offset="1"/>
    </linearGradient>
    <linearGradient id="paint2_linear_203_1167" x1="87.51" x2="162.3" y1="96.96" y2="96.96" gradientUnits="userSpaceOnUse">
      <stop offset="0"/>
      <stop stop-color="#231F20" offset="1"/>
    </linearGradient>
    <linearGradient id="paint3_linear_203_1167" x1="99.6" x2="112.1" y1="78" y2="78" gradientUnits="userSpaceOnUse">
      <stop stop-color="#E42026" offset="0"/>
      <stop stop-color="#A71E22" offset="1"/>
    </linearGradient>
    <linearGradient id="paint4_linear_203_1167" x1="135.7" x2="150.1" y1="77.64" y2="77.64" gradientUnits="userSpaceOnUse">
      <stop stop-color="#E42026" offset="0"/>
      <stop stop-color="#A71E22" offset="1"/>
    </linearGradient>
    <linearGradient id="paint5_linear_203_1167" x1="91.65" x2="105.7" y1="97.23" y2="97.23" gradientUnits="userSpaceOnUse">
      <stop stop-color="#E42026" offset="0"/>
      <stop stop-color="#A71E22" offset="1"/>
    </linearGradient>
    <linearGradient id="paint6_linear_203_1167" x1="143.5" x2="158.1" y1="97.4" y2="97.4" gradientUnits="userSpaceOnUse">
      <stop stop-color="#E42026" offset="0"/>
      <stop stop-color="#A71E22" offset="1"/>
    </linearGradient>
    <linearGradient id="paint7_linear_203_1167" x1="99.93" x2="113.5" y1="116.5" y2="116.5" gradientUnits="userSpaceOnUse">
      <stop stop-color="#E42026" offset="0"/>
      <stop stop-color="#A71E22" offset="1"/>
    </linearGradient>
    <linearGradient id="paint8_linear_203_1167" x1="135.7" x2="150" y1="116.5" y2="116.5" gradientUnits="userSpaceOnUse">
      <stop stop-color="#E42026" offset="0"/>
      <stop stop-color="#A71E22" offset="1"/>
    </linearGradient>
    <linearGradient id="paint9_linear_203_1167" x1="6.75" x2="35.78" y1="182.8" y2="182.8" gradientUnits="userSpaceOnUse">
      <stop stop-color="#A71E22" offset="0"/>
      <stop stop-color="#B92025" offset="1"/>
    </linearGradient>
    <linearGradient id="paint10_linear_203_1167" x1="37.24" x2="71.43" y1="182.6" y2="182.6" gradientUnits="userSpaceOnUse">
      <stop stop-color="#A71E22" offset="0"/>
      <stop stop-color="#B92025" offset="1"/>
    </linearGradient>
  </defs>
</svg>